<svg width="32" height="32" viewBox="0 0 32 32" fill="none" xmlns="http://www.w3.org/2000/svg">
  <defs>
    <linearGradient id="bg" x1="0%" y1="0%" x2="100%" y2="100%">
      <stop offset="0%" style="stop-color:#2563eb"/>
      <stop offset="50%" style="stop-color:#9333ea"/>
      <stop offset="100%" style="stop-color:#4f46e5"/>
    </linearGradient>
  </defs>
  <rect width="32" height="32" rx="6" fill="url(#bg)"/>
  <g transform="translate(4, 4)" fill="white">
    <!-- BiDish satellite dish icon -->
    <path d="M12 2C17.523 2 22 6.477 22 12C22 17.523 17.523 22 12 22C6.477 22 2 17.523 2 12C2 6.477 6.477 2 12 2Z" fill="none" stroke="white" stroke-width="1.5"/>
    <path d="M12 6C15.314 6 18 8.686 18 12C18 15.314 15.314 18 12 18C8.686 18 6 15.314 6 12C6 8.686 8.686 6 12 6Z" fill="none" stroke="white" stroke-width="1.5"/>
    <path d="M12 10C13.105 10 14 10.895 14 12C14 13.105 13.105 14 12 14C10.895 14 10 13.105 10 12C10 10.895 10.895 10 12 10Z" fill="white"/>
    <path d="M12 14L12 18M12 18L8 22M12 18L16 22" stroke="white" stroke-width="1.5" stroke-linecap="round"/>
  </g>
</svg> 